<svg version="1.2" xmlns="http://www.w3.org/2000/svg" viewBox="0 0 600 335" width="600" height="335">
	<title>legend</title>
	<style>
		.s0 { fill: #000000 } 
		.s1 { fill: #ff0000 } 
		.s2 { fill: #fff200 } 
		.s3 { fill: #3f48cc } 
		.s4 { fill: #b5e61d } 
		.s5 { fill: #ff7f27 } 
	</style>
	<path id="Legend" class="s0" aria-label="Legend"  d="m20.7 42v-21.6h2.9v19.1h10.5v2.5zm29.8-8.8v1.3h-12.3q0.2 2.8 1.7 4.2 1.5 1.5 4.1 1.5 1.5 0 3-0.4 1.4-0.4 2.8-1.1v2.5q-1.4 0.6-2.9 0.9-1.5 0.3-3.1 0.3-3.8 0-6.1-2.2-2.3-2.3-2.3-6.1 0-4 2.2-6.4 2.1-2.3 5.8-2.3 3.3 0 5.1 2.1 2 2.1 2 5.7zm-12.2-0.7l9.5-0.1q0-2.1-1.2-3.4-1.2-1.3-3.2-1.3-2.2 0-3.6 1.2-1.3 1.3-1.5 3.6zm27.2 1.2q0-2.9-1.2-4.5-1.2-1.6-3.4-1.6-2.1 0-3.3 1.6-1.2 1.6-1.2 4.5 0 2.9 1.2 4.5 1.2 1.6 3.3 1.6 2.2 0 3.4-1.6 1.2-1.6 1.2-4.5zm2.7-7.9v14.2q0 4.1-1.9 6.2-1.8 2-5.6 2-1.4 0-2.7-0.2-1.2-0.3-2.4-0.7v-2.6q1.2 0.7 2.3 1 1.2 0.3 2.4 0.3 2.6 0 3.9-1.4 1.3-1.4 1.3-4.1v-1.4q-0.8 1.5-2.1 2.2-1.3 0.7-3.1 0.7-3 0-4.8-2.3-1.8-2.2-1.8-6 0-3.8 1.8-6 1.8-2.3 4.8-2.3 1.8 0 3.1 0.7 1.3 0.7 2.1 2.1v-2.4zm19.3 7.4v1.3h-12.2q0.2 2.8 1.6 4.2 1.5 1.5 4.2 1.5 1.5 0 2.9-0.4 1.5-0.4 2.9-1.1v2.5q-1.4 0.6-2.9 0.9-1.5 0.3-3.1 0.3-3.9 0-6.1-2.2-2.3-2.3-2.3-6.1 0-4 2.2-6.4 2.1-2.3 5.8-2.3 3.2 0 5.1 2.1 1.9 2.1 1.9 5.7zm-12.1-0.7l9.5-0.1q-0.1-2.1-1.3-3.4-1.1-1.3-3.1-1.3-2.2 0-3.6 1.2-1.3 1.3-1.5 3.6zm30-0.3v9.8h-2.7v-9.7q0-2.3-0.9-3.4-0.9-1.2-2.7-1.2-2.1 0-3.4 1.4-1.2 1.4-1.2 3.7v9.2h-2.7v-16.2h2.7v2.5q0.9-1.5 2.2-2.2 1.3-0.7 3-0.7 2.8 0 4.2 1.7 1.5 1.8 1.5 5.1zm15.9-4v-8.7h2.7v22.5h-2.7v-2.4q-0.8 1.4-2.1 2.1-1.3 0.7-3.1 0.7-2.9 0-4.7-2.3-1.9-2.4-1.9-6.2 0-3.8 1.9-6.2 1.8-2.3 4.7-2.3 1.8 0 3.1 0.7 1.3 0.7 2.1 2.1zm-9 5.7q0 2.9 1.2 4.6 1.2 1.7 3.3 1.7 2.1 0 3.3-1.7 1.2-1.7 1.2-4.6 0-2.9-1.2-4.6-1.2-1.7-3.3-1.7-2.1 0-3.3 1.7-1.2 1.7-1.2 4.6z"/>
	<path id="Single-Part-Supplier (SPS)  Comp" class="s0" aria-label="Single-Part-Supplier (SPS)

Component Supplier (CS)

OEM1 Factory

State Capital

State of Customer"  d="m78.7 94.9v1.9q-1.1-0.5-2.1-0.8-1-0.2-1.9-0.2-1.7 0-2.5 0.6-0.9 0.6-0.9 1.8 0 0.9 0.6 1.4 0.6 0.5 2.2 0.8l1.2 0.3q2.2 0.4 3.2 1.4 1.1 1.1 1.1 2.9 0 2.1-1.4 3.2-1.5 1.1-4.2 1.1-1 0-2.2-0.3-1.2-0.2-2.4-0.6v-2.1q1.2 0.7 2.3 1 1.2 0.4 2.3 0.4 1.7 0 2.6-0.7 0.9-0.6 0.9-1.9 0-1.1-0.6-1.7-0.7-0.6-2.2-0.9l-1.2-0.2q-2.2-0.4-3.2-1.4-1-0.9-1-2.6 0-1.9 1.4-3 1.3-1.1 3.7-1.1 1.1 0 2.1 0.1 1.1 0.2 2.2 0.6zm3.9 14.1v-10.9h1.8v10.9zm0-12.9v-2.3h1.8v2.3zm14.6 6.3v6.6h-1.8v-6.5q0-1.6-0.6-2.4-0.6-0.7-1.8-0.7-1.5 0-2.3 0.9-0.8 0.9-0.8 2.5v6.2h-1.8v-10.9h1.8v1.7q0.6-1 1.5-1.5 0.9-0.5 2-0.5 1.9 0 2.8 1.2 1 1.1 1 3.4zm10.8 1q0-2-0.8-3-0.8-1.1-2.3-1.1-1.4 0-2.2 1.1-0.8 1-0.8 3 0 1.9 0.8 3 0.8 1.1 2.2 1.1 1.5 0 2.3-1.1 0.8-1.1 0.8-3zm1.8-5.3v9.5q0 2.8-1.3 4.2-1.2 1.4-3.7 1.4-1 0-1.8-0.2-0.9-0.1-1.7-0.4v-1.8q0.8 0.5 1.6 0.7 0.8 0.2 1.6 0.2 1.7 0 2.6-0.9 0.9-1 0.9-2.8v-0.9q-0.6 0.9-1.4 1.4-0.9 0.5-2.1 0.5-2 0-3.3-1.5-1.2-1.6-1.2-4.1 0-2.5 1.2-4.1 1.3-1.5 3.3-1.5 1.2 0 2.1 0.5 0.8 0.5 1.4 1.4v-1.6zm3.7 10.9v-15.2h1.8v15.2zm14.9-5.9v0.9h-8.3q0.2 1.8 1.1 2.8 1.1 1 2.8 1 1.1 0 2-0.3 1-0.2 2-0.8v1.7q-1 0.5-2 0.7-1 0.2-2.1 0.2-2.6 0-4.1-1.5-1.5-1.6-1.5-4.2 0-2.6 1.4-4.2 1.5-1.6 3.9-1.6 2.2 0 3.5 1.4 1.3 1.4 1.3 3.9zm-8.2-0.5h6.4q0-1.5-0.8-2.4-0.8-0.9-2.2-0.9-1.5 0-2.4 0.9-0.9 0.8-1 2.4zm10.2 1.7v-1.6h5.3v1.6zm12.7-8.3h-2.5v5.5h2.5q1.3 0 2.1-0.7 0.7-0.7 0.7-2 0-1.3-0.7-2-0.8-0.8-2.1-0.8zm-4.5 13v-14.6h4.5q2.4 0 3.7 1.1 1.2 1.1 1.2 3.3 0 2.1-1.2 3.2-1.3 1.1-3.7 1.1h-2.5v5.9zm17.8-5.5h-1.8q-2.2 0-3 0.5-0.8 0.5-0.8 1.7 0 1 0.6 1.5 0.6 0.6 1.7 0.6 1.5 0 2.4-1.1 0.9-1 0.9-2.8zm1.8-0.7v6.2h-1.8v-1.7q-0.6 1-1.5 1.5-0.9 0.5-2.3 0.5-1.6 0-2.6-1-1-0.9-1-2.5 0-1.8 1.2-2.8 1.2-0.9 3.7-0.9h2.5v-0.2q0-1.2-0.8-1.9-0.8-0.7-2.3-0.7-0.9 0-1.8 0.2-0.9 0.3-1.7 0.7v-1.6q1-0.4 1.9-0.6 0.9-0.2 1.8-0.2 2.4 0 3.5 1.2 1.2 1.3 1.2 3.8zm10-4.9v1.8q-0.3-0.1-0.6-0.2-0.4-0.1-0.8-0.1-1.5 0-2.3 1-0.9 1-0.9 2.8v5.8h-1.8v-10.9h1.8v1.7q0.6-1 1.5-1.5 0.9-0.5 2.2-0.5 0.2 0 0.4 0 0.3 0 0.5 0.1zm1.9-2.9h1.8v3.1h3.7v1.4h-3.7v5.9q0 1.3 0.4 1.7 0.3 0.4 1.5 0.4h1.8v1.5h-1.8q-2.1 0-2.9-0.8-0.8-0.8-0.8-2.8v-5.9h-1.3v-1.4h1.3zm7 9.3v-1.6h5.2v1.6zm17-9.4v1.9q-1.2-0.5-2.2-0.8-1-0.2-1.9-0.2-1.6 0-2.5 0.6-0.8 0.6-0.8 1.8 0 0.9 0.5 1.4 0.6 0.5 2.2 0.8l1.2 0.3q2.2 0.4 3.3 1.4 1 1.1 1 2.9 0 2.1-1.4 3.2-1.4 1.1-4.1 1.1-1.1 0-2.3-0.2-1.1-0.3-2.4-0.7v-2.1q1.2 0.7 2.4 1 1.1 0.4 2.3 0.4 1.6 0 2.6-0.7 0.9-0.6 0.9-1.9 0-1-0.7-1.7-0.6-0.6-2.1-0.9l-1.2-0.2q-2.3-0.4-3.2-1.4-1-0.9-1-2.6 0-1.9 1.3-3 1.4-1.1 3.8-1.1 1 0 2.1 0.1 1 0.2 2.2 0.6zm3.6 9.8v-6.6h1.8v6.5q0 1.6 0.7 2.4 0.6 0.7 1.8 0.7 1.4 0 2.3-0.9 0.8-0.9 0.8-2.5v-6.2h1.8v10.9h-1.8v-1.7q-0.6 1-1.5 1.5-0.9 0.5-2 0.5-1.9 0-2.9-1.2-1-1.2-1-3.4zm4.6-6.9zm10 9.6v5.8h-1.8v-15.1h1.8v1.6q0.6-0.9 1.5-1.4 0.8-0.5 2-0.5 2 0 3.3 1.6 1.2 1.6 1.2 4.1 0 2.6-1.2 4.2-1.3 1.6-3.3 1.6-1.2 0-2-0.5-0.9-0.5-1.5-1.4zm6.2-3.9q0-1.9-0.9-3.1-0.8-1.1-2.2-1.1-1.4 0-2.2 1.1-0.9 1.2-0.9 3.1 0 2 0.9 3.2 0.8 1.1 2.2 1.1 1.4 0 2.2-1.1 0.9-1.2 0.9-3.2zm6.5 3.9v5.8h-1.8v-15.1h1.8v1.6q0.6-0.9 1.5-1.4 0.8-0.5 2-0.5 2 0 3.3 1.6 1.2 1.6 1.2 4.1 0 2.6-1.2 4.2-1.3 1.6-3.3 1.6-1.2 0-2-0.5-0.9-0.5-1.5-1.4zm6.1-3.9q0-1.9-0.8-3.1-0.8-1.1-2.2-1.1-1.4 0-2.3 1.1-0.8 1.2-0.8 3.1 0 2 0.8 3.2 0.9 1.1 2.3 1.1 1.4 0 2.2-1.1 0.8-1.2 0.8-3.2zm4.9 5.5v-15.2h1.8v15.2zm5.5 0v-10.9h1.8v10.9zm0-12.9v-2.3h1.8v2.3zm14.9 7v0.9h-8.2q0.1 1.8 1.1 2.8 1 1 2.8 1 1 0 2-0.3 1-0.2 1.9-0.7v1.7q-0.9 0.4-2 0.6-1 0.2-2 0.2-2.6 0-4.2-1.5-1.5-1.6-1.5-4.2 0-2.6 1.5-4.2 1.4-1.6 3.9-1.6 2.2 0 3.5 1.4 1.2 1.4 1.2 3.9zm-8.2-0.5h6.4q0-1.5-0.8-2.4-0.8-0.9-2.1-0.9-1.5 0-2.4 0.9-0.9 0.8-1.1 2.4zm17.5-4.7v1.8q-0.3-0.1-0.6-0.2-0.4-0.1-0.8-0.1-1.5 0-2.4 1-0.8 1-0.8 2.8v5.8h-1.8v-10.9h1.8v1.7q0.6-1 1.5-1.5 0.9-0.5 2.2-0.5 0.2 0 0.4 0 0.2 0.1 0.5 0.1zm11-4.1h1.6q-1.3 2.3-2 4.5-0.6 2.2-0.6 4.4 0 2.3 0.6 4.5 0.7 2.2 2 4.4h-1.6q-1.4-2.3-2.2-4.5-0.7-2.2-0.7-4.4 0-2.2 0.7-4.4 0.7-2.2 2.2-4.5zm13.9 1.1v1.9q-1.1-0.5-2.1-0.8-1-0.2-2-0.2-1.6 0-2.4 0.6-0.9 0.6-0.9 1.8 0 0.9 0.6 1.4 0.5 0.5 2.2 0.8l1.2 0.3q2.2 0.4 3.2 1.4 1.1 1.1 1.1 2.9 0 2.1-1.5 3.2-1.4 1.1-4.1 1.1-1.1 0-2.2-0.2-1.2-0.3-2.4-0.7v-2.1q1.2 0.7 2.3 1 1.2 0.4 2.3 0.4 1.7 0 2.6-0.7 0.9-0.6 0.9-1.9 0-1-0.7-1.7-0.6-0.6-2.1-0.9l-1.2-0.2q-2.2-0.4-3.2-1.4-1-0.9-1-2.6 0-1.9 1.4-3 1.3-1.1 3.7-1.1 1 0 2.1 0.1 1.1 0.2 2.2 0.6zm8.4 1.1h-2.5v5.5h2.5q1.4 0 2.1-0.7 0.8-0.7 0.8-2 0-1.3-0.8-2-0.7-0.8-2.1-0.8zm-4.5 13v-14.6h4.5q2.4 0 3.7 1.1 1.2 1.1 1.2 3.3 0 2.1-1.2 3.2-1.3 1.1-3.7 1.1h-2.5v5.9zm20.8-14.1v1.9q-1.1-0.5-2.1-0.8-1-0.2-1.9-0.2-1.6 0-2.5 0.6-0.9 0.6-0.9 1.8 0 0.9 0.6 1.4 0.6 0.5 2.2 0.8l1.2 0.3q2.2 0.4 3.2 1.4 1.1 1.1 1.1 2.9 0 2.1-1.4 3.2-1.5 1.1-4.2 1.1-1 0-2.2-0.2-1.2-0.3-2.4-0.7v-2.1q1.2 0.7 2.3 1 1.2 0.4 2.3 0.4 1.7 0 2.6-0.7 0.9-0.6 0.9-1.9 0-1-0.6-1.7-0.7-0.6-2.2-0.9l-1.2-0.2q-2.2-0.4-3.2-1.4-1-0.9-1-2.6 0-1.9 1.4-3 1.3-1.1 3.7-1.1 1.1 0 2.1 0.1 1.1 0.2 2.2 0.6zm3.6-1.1h1.6q1.4 2.3 2.1 4.5 0.8 2.2 0.8 4.4 0 2.2-0.8 4.4-0.7 2.2-2.1 4.5h-1.6q1.3-2.2 1.9-4.4 0.7-2.2 0.7-4.5 0-2.2-0.7-4.4-0.6-2.2-1.9-4.5zm-238.1 49.7v2.1q-1-0.9-2.1-1.4-1.1-0.4-2.4-0.4-2.5 0-3.8 1.5-1.3 1.5-1.3 4.4 0 2.9 1.3 4.4 1.3 1.6 3.8 1.6 1.3 0 2.4-0.5 1.1-0.4 2.1-1.4v2.1q-1 0.7-2.2 1-1.1 0.4-2.4 0.4-3.3 0-5.2-2-1.9-2.1-1.9-5.6 0-3.5 1.9-5.5 1.9-2 5.2-2 1.3 0 2.5 0.3 1.1 0.4 2.1 1zm7.2 3.8q-1.4 0-2.3 1.2-0.8 1.1-0.8 3 0 2 0.8 3.1 0.9 1.2 2.3 1.2 1.5 0 2.3-1.2 0.8-1.1 0.8-3.1 0-1.9-0.8-3-0.8-1.2-2.3-1.2zm0-1.5q2.4 0 3.7 1.5 1.4 1.6 1.4 4.2 0 2.7-1.4 4.3-1.3 1.5-3.7 1.5-2.3 0-3.7-1.5-1.3-1.6-1.3-4.3 0-2.6 1.3-4.2 1.4-1.5 3.7-1.5zm16.5 2.4q0.7-1.2 1.7-1.8 0.9-0.6 2.2-0.6 1.7 0 2.6 1.2 0.9 1.2 0.9 3.4v6.6h-1.8v-6.5q0-1.6-0.5-2.4-0.6-0.7-1.7-0.7-1.4 0-2.2 0.9-0.9 0.9-0.9 2.5v6.2h-1.8v-6.5q0-1.6-0.5-2.4-0.6-0.7-1.7-0.7-1.4 0-2.2 0.9-0.8 0.9-0.8 2.5v6.2h-1.8v-10.9h1.8v1.7q0.6-1 1.4-1.5 0.9-0.5 2.1-0.5 1.2 0 2 0.6 0.8 0.6 1.2 1.8zm12.7 7.2v5.8h-1.8v-15.1h1.8v1.6q0.6-0.9 1.5-1.4 0.8-0.5 2-0.5 2 0 3.3 1.6 1.2 1.6 1.2 4.1 0 2.6-1.2 4.2-1.3 1.6-3.3 1.6-1.2 0-2-0.5-0.9-0.5-1.5-1.4zm6.2-3.9q0-1.9-0.9-3.1-0.8-1.1-2.2-1.1-1.4 0-2.2 1.1-0.9 1.2-0.9 3.1 0 2 0.9 3.2 0.8 1.1 2.2 1.1 1.4 0 2.2-1.1 0.9-1.2 0.9-3.2zm9-4.2q-1.4 0-2.2 1.2-0.9 1.1-0.9 3 0 2 0.8 3.1 0.9 1.2 2.3 1.2 1.5 0 2.3-1.2 0.8-1.1 0.8-3.1 0-1.9-0.8-3-0.8-1.2-2.3-1.2zm0-1.5q2.4 0 3.7 1.5 1.4 1.6 1.4 4.2 0 2.7-1.4 4.3-1.3 1.5-3.7 1.5-2.3 0-3.7-1.5-1.3-1.6-1.3-4.3 0-2.6 1.3-4.2 1.4-1.5 3.7-1.5zm17.1 4.6v6.6h-1.8v-6.5q0-1.6-0.6-2.4-0.6-0.7-1.8-0.7-1.5 0-2.3 0.9-0.8 0.9-0.8 2.5v6.2h-1.8v-10.9h1.8v1.7q0.6-1 1.5-1.5 0.9-0.5 2-0.5 1.9 0 2.9 1.2 0.9 1.1 0.9 3.4zm13 0.7v0.9h-8.3q0.1 1.8 1.1 2.8 1 1 2.8 1 1 0 2-0.3 1-0.2 1.9-0.7v1.7q-0.9 0.4-1.9 0.6-1.1 0.2-2.1 0.2-2.6 0-4.2-1.5-1.5-1.6-1.5-4.2 0-2.6 1.5-4.2 1.4-1.6 3.9-1.6 2.2 0 3.5 1.4 1.3 1.4 1.3 3.9zm-8.2-0.5h6.4q-0.1-1.5-0.9-2.4-0.8-0.9-2.1-0.9-1.5 0-2.4 0.9-0.9 0.8-1 2.4zm20.2-0.2v6.6h-1.8v-6.5q0-1.6-0.6-2.4-0.6-0.7-1.8-0.7-1.5 0-2.3 0.9-0.9 0.9-0.9 2.5v6.2h-1.8v-10.9h1.8v1.7q0.7-1 1.6-1.5 0.8-0.5 2-0.5 1.9 0 2.8 1.2 1 1.1 1 3.4zm3.5-7.4h1.9v3.1h3.7v1.4h-3.7v5.9q0 1.3 0.3 1.7 0.4 0.4 1.5 0.4h1.9v1.5h-1.9q-2.1 0-2.9-0.8-0.8-0.7-0.8-2.8v-5.9h-1.3v-1.4h1.3zm23.1-0.1v1.9q-1.1-0.5-2.1-0.8-1-0.2-2-0.2-1.6 0-2.4 0.6-0.9 0.6-0.9 1.8 0 0.9 0.6 1.4 0.5 0.5 2.2 0.8l1.2 0.3q2.2 0.4 3.2 1.5 1.1 1 1.1 2.8 0 2.1-1.5 3.2-1.4 1.1-4.1 1.1-1.1 0-2.2-0.2-1.2-0.3-2.4-0.7v-2.1q1.2 0.7 2.3 1.1 1.2 0.3 2.3 0.3 1.7 0 2.6-0.7 0.9-0.6 0.9-1.9 0-1-0.7-1.6-0.6-0.7-2.1-1l-1.2-0.2q-2.2-0.4-3.2-1.4-1-0.9-1-2.6 0-1.9 1.4-3 1.3-1.1 3.7-1.1 1 0 2.1 0.2 1.1 0.1 2.2 0.5zm3.7 9.8v-6.6h1.8v6.5q0 1.6 0.6 2.4 0.6 0.7 1.8 0.7 1.5 0 2.3-0.9 0.8-0.9 0.8-2.5v-6.2h1.8v10.9h-1.8v-1.7q-0.6 1-1.5 1.5-0.8 0.5-2 0.5-1.9 0-2.8-1.2-1-1.1-1-3.4zm4.5-6.9zm10.1 9.6v5.8h-1.8v-15.1h1.8v1.6q0.5-0.9 1.4-1.4 0.9-0.5 2.1-0.5 2 0 3.2 1.6 1.2 1.6 1.2 4.2 0 2.5-1.2 4.1-1.2 1.6-3.2 1.6-1.2 0-2.1-0.5-0.9-0.5-1.4-1.4zm6.1-3.8q0-2-0.8-3.2-0.8-1.1-2.3-1.1-1.4 0-2.2 1.1-0.8 1.2-0.8 3.2 0 1.9 0.8 3.1 0.8 1.1 2.2 1.1 1.5 0 2.3-1.1 0.8-1.2 0.8-3.1zm6.6 3.8v5.8h-1.8v-15.1h1.8v1.6q0.5-0.9 1.4-1.4 0.9-0.5 2.1-0.5 2 0 3.2 1.6 1.2 1.6 1.2 4.2 0 2.5-1.2 4.1-1.2 1.6-3.2 1.6-1.2 0-2.1-0.5-0.9-0.5-1.4-1.4zm6.1-3.8q0-2-0.8-3.2-0.9-1.1-2.3-1.1-1.4 0-2.2 1.1-0.8 1.2-0.8 3.2 0 1.9 0.8 3.1 0.8 1.1 2.2 1.1 1.4 0 2.3-1.1 0.8-1.2 0.8-3.1zm4.8 5.4v-15.2h1.8v15.2zm5.6 0v-10.9h1.8v10.9zm0-12.9v-2.3h1.8v2.3zm14.9 7v0.9h-8.3q0.1 1.8 1.1 2.8 1 1 2.8 1 1.1 0 2-0.3 1-0.2 2-0.7v1.7q-1 0.4-2 0.6-1 0.2-2.1 0.2-2.6 0-4.1-1.5-1.6-1.6-1.6-4.1 0-2.7 1.5-4.3 1.4-1.6 3.9-1.6 2.2 0 3.5 1.4 1.3 1.5 1.3 3.9zm-8.2-0.5h6.4q0-1.5-0.9-2.4-0.8-0.9-2.1-0.9-1.5 0-2.4 0.9-0.9 0.8-1 2.4zm17.4-4.7l0.1 1.9q-0.3-0.2-0.7-0.3-0.4-0.1-0.8-0.1-1.5 0-2.3 1-0.8 1-0.8 2.8v5.8h-1.8v-10.9h1.8v1.7q0.5-1 1.4-1.5 0.9-0.5 2.2-0.5 0.2 0 0.4 0 0.3 0.1 0.5 0.1zm11-4.1h1.6q-1.3 2.3-1.9 4.5-0.7 2.2-0.7 4.4 0 2.3 0.7 4.5 0.6 2.2 1.9 4.5h-1.6q-1.4-2.3-2.1-4.6-0.8-2.2-0.8-4.4 0-2.1 0.8-4.4 0.7-2.2 2.1-4.5zm16.1 1.8v2q-1-0.9-2.1-1.4-1.2-0.4-2.4-0.4-2.5 0-3.9 1.5-1.3 1.5-1.3 4.4 0 2.9 1.3 4.5 1.4 1.5 3.9 1.5 1.2 0 2.4-0.5 1.1-0.4 2.1-1.4v2.1q-1 0.7-2.2 1-1.2 0.4-2.4 0.4-3.4 0-5.3-2-1.9-2.1-1.9-5.6 0-3.5 1.9-5.5 1.9-2 5.3-2 1.3 0 2.4 0.3 1.2 0.4 2.2 1.1zm11.8-0.7v1.9q-1.1-0.5-2.1-0.8-1-0.2-2-0.2-1.6 0-2.5 0.6-0.8 0.6-0.8 1.8 0 0.9 0.5 1.4 0.6 0.5 2.3 0.8l1.1 0.3q2.3 0.4 3.3 1.5 1.1 1 1.1 2.8 0 2.1-1.5 3.2-1.4 1.1-4.1 1.1-1.1 0-2.2-0.2-1.2-0.3-2.5-0.7v-2.1q1.3 0.7 2.4 1.1 1.2 0.3 2.3 0.3 1.7 0 2.6-0.7 0.9-0.6 0.9-1.9 0-1-0.7-1.6-0.6-0.7-2.1-1l-1.2-0.2q-2.2-0.4-3.2-1.4-1-0.9-1-2.6 0-1.9 1.3-3 1.4-1.1 3.8-1.1 1 0 2.1 0.2 1.1 0.1 2.2 0.5zm3.6-1.1h1.5q1.5 2.3 2.2 4.5 0.7 2.3 0.7 4.4 0 2.2-0.7 4.4-0.7 2.3-2.2 4.6h-1.5q1.3-2.3 1.9-4.5 0.6-2.2 0.6-4.5 0-2.2-0.6-4.4-0.6-2.2-1.9-4.5zm-239.4 50q-2.1 0-3.4 1.6-1.3 1.6-1.3 4.3 0 2.8 1.3 4.4 1.3 1.6 3.4 1.6 2.2 0 3.4-1.6 1.3-1.6 1.3-4.4 0-2.7-1.3-4.3-1.2-1.6-3.4-1.6zm0-1.6q3.1 0 4.9 2 1.9 2.1 1.9 5.5 0 3.5-1.9 5.5-1.8 2.1-4.9 2.1-3.1 0-4.9-2.1-1.8-2-1.8-5.5 0-3.4 1.8-5.5 1.8-2 4.9-2zm9.8 14.8v-14.6h9.3v1.7h-7.3v4.3h7v1.7h-7v5.3h7.4v1.6zm12.7 0v-14.6h2.9l3.7 10 3.8-10h2.9v14.6h-1.9v-12.8l-3.8 10h-2l-3.7-10v12.8zm17.7 0v-1.6h3.3v-11.2l-3.5 0.7v-1.8l3.4-0.7h2v13h3.2v1.6zm18.6 0v-14.6h8.4v1.7h-6.4v4.3h5.8v1.6h-5.8v7zm16.3-5.5h-1.8q-2.1 0-3 0.5-0.8 0.5-0.8 1.7 0 1 0.6 1.5 0.6 0.6 1.7 0.6 1.5 0 2.4-1.1 0.9-1 0.9-2.8zm1.8-0.7v6.2h-1.8v-1.6q-0.6 0.9-1.5 1.4-0.9 0.5-2.3 0.5-1.6 0-2.6-0.9-1-1-1-2.6 0-1.8 1.2-2.8 1.2-0.9 3.7-0.9h2.5v-0.2q0-1.2-0.8-1.9-0.8-0.7-2.3-0.7-0.9 0-1.8 0.3-0.9 0.2-1.7 0.6v-1.6q1-0.4 1.9-0.6 0.9-0.2 1.8-0.2 2.4 0 3.5 1.2 1.2 1.3 1.2 3.8zm11.6-4.3v1.7q-0.8-0.4-1.5-0.7-0.8-0.2-1.6-0.2-1.7 0-2.7 1.1-1 1.2-1 3.2 0 2 1 3.1 1 1.1 2.7 1.1 0.8 0 1.6-0.2 0.7-0.2 1.5-0.7v1.7q-0.8 0.3-1.6 0.5-0.8 0.2-1.7 0.2-2.5 0-3.9-1.6-1.5-1.5-1.5-4.1 0-2.7 1.5-4.3 1.5-1.5 4-1.5 0.9 0 1.7 0.2 0.7 0.2 1.5 0.5zm3.1-3.5h1.8v3.1h3.7v1.4h-3.7v5.9q0 1.3 0.3 1.7 0.4 0.4 1.5 0.4h1.9v1.5h-1.9q-2 0-2.8-0.8-0.8-0.7-0.8-2.8v-5.9h-1.3v-1.4h1.3zm12.1 4.3q-1.5 0-2.3 1.2-0.8 1.1-0.8 3.1 0 1.9 0.8 3.1 0.8 1.1 2.3 1.1 1.4 0 2.3-1.2 0.8-1.1 0.8-3 0-2-0.8-3.1-0.9-1.2-2.3-1.2zm0-1.5q2.3 0 3.7 1.5 1.3 1.6 1.3 4.3 0 2.6-1.3 4.2-1.4 1.5-3.7 1.5-2.4 0-3.7-1.5-1.3-1.6-1.3-4.2 0-2.7 1.3-4.3 1.3-1.5 3.7-1.5zm14.3 0.1v1.9q-0.3-0.2-0.6-0.3-0.4-0.1-0.8-0.1-1.6 0-2.4 1-0.8 1-0.8 2.9v5.7h-1.8v-10.9h1.8v1.7q0.6-1 1.5-1.5 0.9-0.5 2.2-0.5 0.2 0 0.4 0 0.2 0.1 0.5 0.1zm11.3 0.2l-4.9 11.9q-0.7 2-1.4 2.6-0.8 0.6-2 0.6h-1.4v-1.5h1.1q0.7 0 1.1-0.4 0.4-0.3 0.9-1.6l0.3-0.9-4.4-10.7h1.9l3.4 8.5 3.4-8.5zm-126.4 44.8v1.9q-1.1-0.5-2.1-0.8-1-0.2-1.9-0.2-1.6 0-2.5 0.6-0.9 0.6-0.9 1.8 0 0.9 0.6 1.4 0.6 0.5 2.2 0.8l1.2 0.3q2.2 0.4 3.2 1.5 1.1 1 1.1 2.8 0 2.1-1.4 3.2-1.5 1.1-4.2 1.1-1 0-2.2-0.2-1.2-0.3-2.4-0.7v-2.1q1.2 0.7 2.3 1.1 1.2 0.3 2.3 0.3 1.7 0 2.6-0.7 0.9-0.6 0.9-1.9 0-1-0.6-1.6-0.7-0.6-2.2-0.9l-1.2-0.3q-2.2-0.4-3.2-1.4-1-0.9-1-2.6 0-1.9 1.4-3 1.4-1.1 3.7-1.1 1.1 0 2.1 0.2 1.1 0.1 2.2 0.5zm3.9 0.1h1.8v3.1h3.7v1.4h-3.7v5.9q0 1.4 0.3 1.7 0.4 0.4 1.5 0.4h1.9v1.5h-1.9q-2.1 0-2.9-0.8-0.7-0.7-0.7-2.8v-5.9h-1.4v-1.4h1.4zm14.6 8.5h-1.8q-2.2 0-3 0.5-0.9 0.5-0.9 1.7 0 1 0.7 1.5 0.6 0.6 1.7 0.6 1.5 0 2.4-1 0.9-1.1 0.9-2.9zm1.8-0.7v6.2h-1.8v-1.6q-0.6 1-1.6 1.4-0.9 0.5-2.2 0.5-1.7 0-2.7-0.9-1-1-1-2.6 0-1.8 1.3-2.7 1.2-1 3.7-1h2.5v-0.2q0-1.2-0.8-1.9-0.8-0.7-2.3-0.7-1 0-1.8 0.3-0.9 0.2-1.8 0.6v-1.6q1-0.4 2-0.6 0.9-0.2 1.8-0.2 2.3 0 3.5 1.3 1.2 1.2 1.2 3.7zm3.6-7.8h1.9v3.1h3.7v1.4h-3.7v5.9q0 1.4 0.3 1.7 0.4 0.4 1.5 0.4h1.9v1.5h-1.9q-2.1 0-2.9-0.7-0.8-0.8-0.8-2.9v-5.9h-1.3v-1.4h1.3zm17.3 8.1v0.9h-8.3q0.1 1.8 1.1 2.8 1 1 2.8 1 1.1 0 2-0.3 1-0.2 2-0.7v1.7q-1 0.4-2 0.6-1 0.2-2.1 0.2-2.6 0-4.1-1.5-1.6-1.5-1.6-4.1 0-2.7 1.5-4.3 1.4-1.6 3.9-1.6 2.2 0 3.5 1.5 1.3 1.4 1.3 3.8zm-8.2-0.5h6.4q0-1.5-0.9-2.4-0.8-0.8-2.1-0.8-1.5 0-2.4 0.8-0.9 0.9-1 2.4zm28.5-7v2.1q-1-1-2.2-1.4-1.1-0.5-2.4-0.5-2.5 0-3.8 1.5-1.3 1.6-1.3 4.5 0 2.8 1.3 4.4 1.3 1.5 3.8 1.5 1.3 0 2.4-0.5 1.2-0.4 2.2-1.4v2.1q-1.1 0.7-2.2 1.1-1.2 0.3-2.5 0.3-3.3 0-5.2-2-1.9-2-1.9-5.5 0-3.6 1.9-5.6 1.9-2 5.2-2 1.3 0 2.5 0.3 1.2 0.4 2.2 1.1zm9.7 7.9h-1.8q-2.2 0-3 0.5-0.9 0.5-0.9 1.7 0 1 0.7 1.6 0.6 0.5 1.7 0.5 1.5 0 2.4-1 0.9-1.1 0.9-2.9zm1.8-0.7v6.2h-1.8v-1.6q-0.6 1-1.5 1.4-1 0.5-2.3 0.5-1.7 0-2.7-0.9-0.9-1-0.9-2.6 0-1.8 1.2-2.7 1.2-1 3.7-1h2.5v-0.1q0-1.3-0.8-2-0.8-0.6-2.3-0.6-1 0-1.8 0.2-0.9 0.2-1.7 0.7v-1.7q0.9-0.4 1.9-0.6 0.9-0.2 1.8-0.2 2.3 0 3.5 1.3 1.2 1.2 1.2 3.7zm5.4 4.6v5.8h-1.8v-15.1h1.8v1.7q0.6-1 1.5-1.5 0.8-0.5 2-0.5 2 0 3.3 1.6 1.2 1.6 1.2 4.2 0 2.6-1.2 4.1-1.3 1.6-3.3 1.6-1.2 0-2-0.5-0.9-0.4-1.5-1.4zm6.1-3.8q0-2-0.8-3.1-0.8-1.2-2.2-1.2-1.4 0-2.3 1.2-0.8 1.1-0.8 3.1 0 2 0.8 3.1 0.9 1.1 2.3 1.1 1.4 0 2.2-1.1 0.8-1.1 0.8-3.1zm4.9 5.4v-10.9h1.8v10.9zm0-12.9v-2.3h1.8v2.3zm5.5-1.1h1.8v3.1h3.7v1.4h-3.7v5.9q0 1.4 0.4 1.7 0.3 0.4 1.5 0.4h1.8v1.5h-1.8q-2.1 0-2.9-0.7-0.8-0.8-0.8-2.9v-5.9h-1.3v-1.4h1.3zm14.6 8.5h-1.8q-2.1 0-3 0.5-0.8 0.5-0.8 1.7 0 1 0.6 1.6 0.6 0.5 1.7 0.5 1.5 0 2.4-1 0.9-1.1 0.9-2.9zm1.8-0.7v6.2h-1.8v-1.6q-0.6 1-1.5 1.5-0.9 0.4-2.3 0.4-1.6 0-2.6-0.9-1-1-1-2.5 0-1.9 1.2-2.8 1.3-1 3.7-1h2.5v-0.1q0-1.3-0.8-2-0.8-0.6-2.3-0.6-0.9 0-1.8 0.2-0.9 0.2-1.7 0.7v-1.7q1-0.4 1.9-0.6 0.9-0.2 1.8-0.2 2.4 0 3.5 1.3 1.2 1.2 1.2 3.7zm3.7 6.2v-15.2h1.8v15.2zm-115 33.9v2q-1.1-0.6-2.1-0.8-1-0.3-1.9-0.3-1.7 0-2.5 0.6-0.9 0.6-0.9 1.8 0 1 0.6 1.5 0.6 0.5 2.2 0.8l1.2 0.2q2.2 0.4 3.2 1.5 1.1 1 1.1 2.8 0 2.1-1.4 3.2-1.5 1.1-4.2 1.1-1 0-2.2-0.2-1.2-0.2-2.4-0.7v-2q1.2 0.6 2.3 1 1.2 0.3 2.3 0.3 1.7 0 2.6-0.6 0.9-0.7 0.9-1.9 0-1.1-0.6-1.7-0.7-0.6-2.2-0.9l-1.2-0.3q-2.2-0.4-3.2-1.3-1-1-1-2.6 0-2 1.4-3.1 1.3-1.1 3.7-1.1 1.1 0 2.1 0.2 1.1 0.2 2.2 0.5zm3.8 0.1h1.9v3.1h3.7v1.4h-3.7v5.9q0 1.4 0.3 1.8 0.4 0.3 1.5 0.3h1.9v1.5h-1.9q-2.1 0-2.9-0.7-0.8-0.8-0.8-2.9v-5.9h-1.3v-1.4h1.3zm14.7 8.5h-1.8q-2.2 0-3 0.5-0.9 0.5-0.9 1.7 0 1 0.7 1.6 0.6 0.5 1.7 0.5 1.5 0 2.4-1 0.9-1.1 0.9-2.9zm1.8-0.7v6.2h-1.8v-1.6q-0.6 1-1.6 1.5-0.9 0.4-2.2 0.4-1.7 0-2.7-0.9-1-1-1-2.5 0-1.9 1.3-2.8 1.2-1 3.7-1h2.5v-0.1q0-1.3-0.8-1.9-0.9-0.7-2.3-0.7-1 0-1.9 0.2-0.8 0.2-1.7 0.7v-1.7q1-0.4 1.9-0.6 1-0.2 1.9-0.2 2.3 0 3.5 1.3 1.2 1.2 1.2 3.7zm3.6-7.8h1.8v3.1h3.7v1.4h-3.7v5.9q0 1.4 0.4 1.8 0.4 0.3 1.5 0.3h1.8v1.5h-1.8q-2.1 0-2.9-0.7-0.8-0.8-0.8-2.9v-5.9h-1.3v-1.4h1.3zm17.3 8.1v0.9h-8.3q0.1 1.9 1.1 2.8 1 1 2.8 1 1 0 2-0.2 1-0.3 1.9-0.8v1.7q-0.9 0.4-1.9 0.6-1.1 0.2-2.1 0.2-2.6 0-4.2-1.5-1.5-1.5-1.5-4.1 0-2.7 1.5-4.3 1.4-1.6 3.9-1.6 2.2 0 3.5 1.5 1.3 1.4 1.3 3.8zm-8.2-0.5h6.4q-0.1-1.5-0.9-2.3-0.8-0.9-2.1-0.9-1.5 0-2.4 0.8-0.9 0.9-1 2.4zm21.7-3.2q-1.4 0-2.3 1.1-0.8 1.1-0.8 3.1 0 2 0.8 3.1 0.8 1.1 2.3 1.1 1.4 0 2.3-1.1 0.8-1.2 0.8-3.1 0-2-0.8-3.1-0.9-1.1-2.3-1.1zm0-1.6q2.3 0 3.7 1.6 1.3 1.5 1.3 4.2 0 2.7-1.3 4.2-1.4 1.5-3.7 1.5-2.4 0-3.7-1.5-1.3-1.5-1.3-4.2 0-2.7 1.3-4.2 1.3-1.6 3.7-1.6zm11.8-3.9h1.7v1.4h-1.7q-1 0-1.3 0.4-0.4 0.4-0.4 1.4v1h3v1.4h-3v9.6h-1.8v-9.6h-1.7v-1.4h1.7v-0.7q0-1.9 0.8-2.7 0.9-0.8 2.7-0.8zm20.6 1.7v2.1q-1-1-2.1-1.4-1.2-0.5-2.4-0.5-2.5 0-3.9 1.6-1.3 1.5-1.3 4.4 0 2.9 1.3 4.4 1.4 1.5 3.9 1.5 1.2 0 2.4-0.4 1.1-0.5 2.1-1.4v2q-1.1 0.7-2.2 1.1-1.2 0.3-2.5 0.3-3.3 0-5.2-2-1.9-2-1.9-5.5 0-3.5 1.9-5.6 1.9-2 5.2-2 1.4 0 2.5 0.4 1.2 0.3 2.2 1zm2.8 9.1v-6.6h1.8v6.6q0 1.5 0.6 2.3 0.6 0.8 1.8 0.8 1.4 0 2.3-1 0.8-0.9 0.8-2.5v-6.2h1.8v11h-1.8v-1.7q-0.6 1-1.5 1.5-0.9 0.4-2 0.4-1.9 0-2.9-1.1-0.9-1.2-0.9-3.5zm4.5-6.9zm15.3 0.6v1.7q-0.8-0.4-1.6-0.6-0.8-0.1-1.7-0.1-1.3 0-2 0.4-0.7 0.4-0.7 1.2 0 0.6 0.5 1 0.5 0.3 1.9 0.7l0.7 0.1q1.9 0.4 2.7 1.2 0.8 0.7 0.8 2 0 1.6-1.2 2.4-1.2 0.9-3.3 0.9-0.9 0-1.9-0.1-0.9-0.2-2-0.5v-1.9q1 0.5 2 0.8 1 0.2 1.9 0.2 1.3 0 2-0.4 0.6-0.4 0.6-1.2 0-0.8-0.5-1.2-0.5-0.3-2.1-0.7l-0.6-0.2q-1.7-0.3-2.5-1-0.7-0.8-0.7-2 0-1.6 1.1-2.4 1.1-0.9 3.1-0.9 1 0 1.9 0.2 0.9 0.1 1.6 0.4zm3.4-3.4h1.8v3.1h3.7v1.4h-3.7v5.9q0 1.4 0.4 1.8 0.4 0.3 1.5 0.3h1.8v1.6h-1.8q-2.1 0-2.9-0.8-0.8-0.8-0.8-2.9v-5.9h-1.3v-1.4h1.3zm12.1 4.4q-1.4 0-2.3 1.1-0.8 1.1-0.8 3.1 0 2 0.8 3.1 0.9 1.1 2.3 1.1 1.5 0 2.3-1.1 0.8-1.1 0.8-3.1 0-1.9-0.8-3.1-0.8-1.1-2.3-1.1zm0-1.5q2.4 0 3.7 1.5 1.3 1.5 1.3 4.2 0 2.7-1.3 4.2-1.3 1.5-3.7 1.5-2.3 0-3.7-1.5-1.3-1.5-1.3-4.2 0-2.7 1.3-4.2 1.4-1.5 3.7-1.5zm16.5 2.3q0.7-1.2 1.6-1.8 1-0.5 2.2-0.5 1.8 0 2.7 1.2 0.9 1.1 0.9 3.4v6.6h-1.8v-6.6q0-1.6-0.6-2.3-0.5-0.8-1.7-0.8-1.3 0-2.2 0.9-0.8 1-0.8 2.6v6.2h-1.8v-6.6q0-1.6-0.5-2.3-0.6-0.8-1.8-0.8-1.3 0-2.1 1-0.8 0.9-0.8 2.5v6.2h-1.9v-11h1.9v1.7q0.6-1 1.4-1.5 0.9-0.4 2.1-0.4 1.2 0 2 0.6 0.8 0.6 1.2 1.7zm20.3 2.9v0.9h-8.2q0.1 1.9 1.1 2.9 1 0.9 2.8 0.9 1 0 2-0.2 1-0.3 1.9-0.8v1.7q-0.9 0.4-2 0.6-1 0.2-2 0.2-2.6 0-4.2-1.5-1.5-1.5-1.5-4.1 0-2.7 1.5-4.3 1.4-1.5 3.9-1.5 2.2 0 3.5 1.4 1.2 1.4 1.2 3.8zm-8.2-0.5h6.4q0-1.5-0.8-2.3-0.8-0.9-2.1-0.9-1.5 0-2.4 0.8-0.9 0.9-1.1 2.4zm17.5-4.6v1.8q-0.3-0.2-0.6-0.3-0.4 0-0.8 0-1.5 0-2.4 1-0.8 0.9-0.8 2.8v5.8h-1.8v-11h1.8v1.7q0.6-1 1.5-1.5 0.9-0.4 2.2-0.4 0.2 0 0.4 0 0.2 0 0.5 0.1z"/>
	<g id="Kreise links">
		<path id="Ebene 1" class="s1" d="m38 121c-10 0-18-8-18-18 0-10 8-18 18-18 10 0 18 8 18 18 0 10-8 18-18 18z"/>
		<path id="Ebene 1 copy" class="s2" d="m38 169c-10 0-18-8-18-18 0-10 8-18 18-18 10 0 18 8 18 18 0 10-8 18-18 18z"/>
		<path id="Ebene 1 copy 2" class="s3" d="m38 217c-10 0-18-8-18-18 0-10 8-18 18-18 10 0 18 8 18 18 0 10-8 18-18 18z"/>
		<path id="Ebene 1 copy 3" class="s4" d="m38 265c-10 0-18-8-18-18 0-10 8-18 18-18 10 0 18 8 18 18 0 10-8 18-18 18z"/>
		<path id="Ebene 1 copy 4" class="s5" d="m38 313c-10 0-18-8-18-18 0-10 8-18 18-18 10 0 18 8 18 18 0 10-8 18-18 18z"/>
	</g>
	<g id="Direction mit Pfeil">
		<path id="Direction" class="s0" aria-label="Direction"  d="m403.5 65.2h-3.1v14.7h3.1q3.9 0 5.7-1.8 1.9-1.8 1.9-5.6 0-3.8-1.9-5.6-1.8-1.7-5.7-1.7zm-5.7 16.8v-19h5.3q5.5 0 8.1 2.3 2.6 2.3 2.6 7.2 0 4.9-2.6 7.2-2.6 2.3-8.1 2.3zm19.9 0v-14.2h2.3v14.2zm0-16.8v-3h2.4v3zm15.4 2.4v2.4q-0.3-0.3-0.8-0.4-0.5-0.1-1-0.1-2 0-3.1 1.3-1 1.3-1 3.7v7.5h-2.4v-14.2h2.4v2.2q0.7-1.3 1.9-1.9 1.2-0.7 2.9-0.7 0.2 0 0.5 0.1 0.3 0 0.6 0.1zm14.1 6.7v1.1h-10.8q0.2 2.5 1.5 3.7 1.3 1.3 3.6 1.3 1.4 0 2.6-0.3 1.3-0.4 2.5-1v2.2q-1.2 0.5-2.5 0.8-1.4 0.3-2.7 0.3-3.4 0-5.4-2-2-2-2-5.4 0-3.5 1.9-5.5 1.9-2.1 5.1-2.1 2.8 0 4.5 1.9 1.7 1.8 1.7 5zm-10.7-0.7h8.4q-0.1-1.9-1.1-3-1.1-1.2-2.8-1.2-2 0-3.1 1.1-1.2 1.1-1.4 3.1zm24.8-5.3v2.2q-1-0.5-2-0.8-1-0.3-2-0.3-2.3 0-3.6 1.5-1.2 1.4-1.2 4 0 2.6 1.2 4.1 1.3 1.4 3.6 1.4 1 0 2-0.3 1-0.3 2-0.8v2.2q-1 0.4-2.1 0.6-1 0.3-2.2 0.3-3.2 0-5.1-2.1-1.9-2-1.9-5.4 0-3.5 1.9-5.5 1.9-2 5.3-2 1 0 2.1 0.3 1 0.2 2 0.6zm4-4.6h2.3v4.1h4.8v1.8h-4.8v7.7q0 1.8 0.5 2.2 0.5 0.5 1.9 0.5h2.4v2h-2.4q-2.7 0-3.7-1-1-1-1-3.7v-7.7h-1.7v-1.8h1.7zm10.2 18.2v-14.2h2.3v14.2zm0-16.8v-2.9h2.4v2.9zm12.7 4.3q-1.9 0-3 1.4-1 1.5-1 4 0 2.6 1 4.1 1.1 1.4 3 1.4 1.9 0 3-1.4 1.1-1.5 1.1-4.1 0-2.5-1.1-4-1.1-1.4-3-1.4zm0-2q3.1 0 4.8 2 1.7 1.9 1.7 5.4 0 3.5-1.7 5.5-1.7 2-4.8 2-3 0-4.8-2-1.7-2-1.7-5.5 0-3.5 1.7-5.4 1.8-2 4.8-2zm22.2 6v8.5h-2.3v-8.5q0-2-0.8-3-0.8-1-2.4-1-1.8 0-2.9 1.2-1.1 1.2-1.1 3.3v8h-2.4v-14.2h2.4v2.2q0.8-1.3 1.9-1.9 1.2-0.6 2.7-0.6 2.4 0 3.7 1.5 1.2 1.5 1.2 4.5z"/>
		<path id="Ebene 2" class="s0" d="m339.7 99.4v-5h200.4v-12.5l30 15-30 15v-12.5z"/>
	</g>
	<g id="Bilder rechts 1">
		<path id="Ebene 1 copy 5" class="s1" d="m356 169c-10 0-18-8-18-18 0-10 8-18 18-18 10 0 18 8 18 18 0 10-8 18-18 18z"/>
		<path id="Ebene 4" class="s1" d="m369.1 153.8l0.1-5 171.4 0.3v5z"/>
		<path id="Ebene 1 copy 6" class="s2" d="m553 169c-10 0-18-8-18-18 0-10 8-18 18-18 10 0 18 8 18 18 0 10-8 18-18 18z"/>
	</g>
	<g id="Bilder rechts 2" style="opacity: 1">
		<path id="Ebene 1 copy 5" class="s2" d="m355.5 217c-10 0-18-8-18-18 0-10 8-18 18-18 10 0 18 8 18 18 0 10-8 18-18 18z"/>
		<path id="Ebene 4" class="s2" d="m369.6 201.8l0.1-5 171.4 0.3v5z"/>
		<path id="Ebene 1 copy 6" class="s3" d="m552.5 217c-10 0-18-8-18-18 0-10 8-18 18-18 10 0 18 8 18 18 0 10-8 18-18 18z"/>
	</g>
	<g id="Bilder rechts 3" style="opacity: 1">
		<path id="Ebene 1 copy 5" class="s3" d="m355.5 265c-10 0-18-8-18-18 0-10 8-18 18-18 10 0 18 8 18 18 0 10-8 18-18 18z"/>
		<path id="Ebene 4" class="s3" d="m369.6 249.8l0.1-5 171.4 0.3v5z"/>
		<path id="Ebene 1 copy 6" class="s4" d="m552.5 265c-10 0-18-8-18-18 0-10 8-18 18-18 10 0 18 8 18 18 0 10-8 18-18 18z"/>
	</g>
	<g id="Bilder rechts 4" style="opacity: 1">
		<path id="Ebene 1 copy 5" class="s4" d="m355.5 313c-10 0-18-8-18-18 0-10 8-18 18-18 10 0 18 8 18 18 0 10-8 18-18 18z"/>
		<path id="Ebene 4" class="s4" d="m369.6 297.8l0.1-5 171.4 0.3v5z"/>
		<path id="Ebene 1 copy 6" class="s5" d="m552.5 313c-10 0-18-8-18-18 0-10 8-18 18-18 10 0 18 8 18 18 0 10-8 18-18 18z"/>
	</g>
</svg>